<?xml version="1.0" encoding="UTF-8"?>
<svg width="600" height="400" viewBox="0 0 600 400" fill="none" xmlns="http://www.w3.org/2000/svg">
  <!-- Background shapes -->
  <circle cx="300" cy="200" r="180" fill="#E6FFFA" opacity="0.5"/>
  <circle cx="380" cy="150" r="120" fill="#B2F5EA" opacity="0.3"/>
  
  <!-- People illustrations -->
  <g transform="translate(200, 100)">
    <!-- Person 1 -->
    <circle cx="100" cy="80" r="40" fill="#319795"/>
    <circle cx="100" cy="60" r="20" fill="#4FD1C5"/>
    <!-- Body -->
    <path d="M70 140 L130 140 L120 200 L80 200 Z" fill="#319795"/>
    
    <!-- Person 2 -->
    <circle cx="180" cy="100" r="35" fill="#319795"/>
    <circle cx="180" cy="80" r="18" fill="#4FD1C5"/>
    <!-- Body -->
    <path d="M155 150 L205 150 L195 200 L165 200 Z" fill="#319795"/>
    
    <!-- Person 3 -->
    <circle cx="20" cy="110" r="30" fill="#319795"/>
    <circle cx="20" cy="95" r="15" fill="#4FD1C5"/>
    <!-- Body -->
    <path d="M0 155 L40 155 L35 200 L5 200 Z" fill="#319795"/>
  </g>
  
  <!-- Decorative elements -->
  <circle cx="450" cy="50" r="20" fill="#81E6D9"/>
  <circle cx="150" cy="350" r="25" fill="#81E6D9"/>
  <circle cx="500" cy="300" r="15" fill="#81E6D9"/>
  
  <!-- Connection lines -->
  <path d="M280 180 L380 150" stroke="#4FD1C5" stroke-width="3" stroke-dasharray="5,5"/>
  <path d="M220 210 L320 250" stroke="#4FD1C5" stroke-width="3" stroke-dasharray="5,5"/>
  <path d="M400 180 L450 250" stroke="#4FD1C5" stroke-width="3" stroke-dasharray="5,5"/>
</svg>